<?xml version="1.0" encoding="UTF-8"?>
<svg width="16px" height="16px" viewBox="0 0 16 16" version="1.1" xmlns="http://www.w3.org/2000/svg" xmlns:xlink="http://www.w3.org/1999/xlink">
    <title>切片</title>
    <defs>
        <filter id="filter-1">
            <feColorMatrix in="SourceGraphic" type="matrix" values="0 0 0 0 1.000000 0 0 0 0 1.000000 0 0 0 0 1.000000 0 0 0 1.000000 0"></feColorMatrix>
        </filter>
    </defs>
    <g id="白" stroke="none" stroke-width="1" fill="none" fill-rule="evenodd">
        <g id="icon/right" transform="translate(-113.000000, -54.000000)" filter="url(#filter-1)">
            <g transform="translate(113.000000, 54.000000)">
                <path d="M10.7843055,4.08859116 L10.8535534,4.14644661 L14.8535534,8.14644661 C15.0488155,8.34170876 15.0488155,8.65829124 14.8535534,8.85355339 L14.8535534,8.85355339 L10.8535534,12.8535534 L10.7843055,12.9114088 C10.5894374,13.0464049 10.320013,13.0271197 10.1464466,12.8535534 C9.95118446,12.6582912 9.95118446,12.3417088 10.1464466,12.1464466 L10.1464466,12.1464466 L13.293,9 L2.5,9 C2.22385763,9 2,8.77614237 2,8.5 C2,8.25454011 2.17687516,8.05039163 2.41012437,8.00805567 L2.5,8 L13.293,8 L10.1464466,4.85355339 C9.95118446,4.65829124 9.95118446,4.34170876 10.1464466,4.14644661 C10.320013,3.97288026 10.5894374,3.95359511 10.7843055,4.08859116 Z" id="蒙版" fill="#002FA7" fill-rule="nonzero"></path>
            </g>
        </g>
    </g>
</svg>